<svg version="1.1" xmlns="http://www.w3.org/2000/svg" xmlns:xlink="http://www.w3.org/1999/xlink">
    <symbol id="add" class="add" viewBox="0 0 15 15" stroke="#000000" stroke-width="1" fill="none">
    	<path d="M7.5,0.5 L7.5,14.5" stroke-linecap="square"></path>
		<path d="M0.5,7.5 L14.5,7.5" stroke-linecap="square"></path>
    </symbol>
    <symbol id="expand" class="expand" viewBox="0 0 15 15" stroke="#000000" stroke-width="1" fill="none">
    	<circle cx="7.5" cy="7.5" r="7"></circle>
		<path d="M4,7.5 L11,7.5" stroke-linecap="square"></path>
		<path d="M7.5,4 L7.5,11" stroke-linecap="square"></path>
    </symbol>
    <symbol id="collapse" class="collapse" viewBox="0 0 15 15" stroke="#000000" stroke-width="1" fill="none">
    	<circle cx="7.5" cy="7.5" r="7"></circle>
		<path d="M4,7.5 L11,7.5" stroke-linecap="square"></path>
    </symbol>
    <symbol id="trash" class="trash" viewBox="0 0 14 16" stroke="#000000" fill="none">
    	<path d="M1.5,3.5 L12.5,3.5 L12.5,13.4914698 C12.5,14.6007504 11.5998238,15.5 10.507983,15.5 L3.49201702,15.5 C2.3918564,15.5 1.5,14.5980496 1.5,13.4914698 L1.5,3.5 Z" stroke-linecap="square"></path>
		<path d="M0.5,3.5 L13.5,3.5" stroke-linecap="square"></path>
		<path d="M4.5,6.5 L4.5,12.5" stroke-linecap="square"></path>
		<path d="M7,6.5 L7,12.5" stroke-linecap="square"></path>
		<path d="M9.5,6.5 L9.5,12.5" stroke-linecap="square"></path>
		<path d="M4.0933281,1.46573222 C4.2488912,0.932373041 4.82261205,0.5 5.3748423,0.5 L8.6251577,0.5 C9.17735535,0.5 9.75036617,0.929826856 9.9066719,1.46573222 L10.5,3.5 L3.5,3.5 L4.0933281,1.46573222 Z" stroke-linecap="square"></path>
    </symbol>
</svg>